<svg version="1.1" id="Layer_1" xmlns="http://www.w3.org/2000/svg" xmlns:xlink="http://www.w3.org/1999/xlink" x="0px" y="0px"
	 width="100%" viewBox="0 0 496 496" enable-background="new 0 0 496 496" xml:space="preserve">
<path fill="#000000" opacity="1.000000" stroke="none" 
	d="
M77.420029,181.524612 
	C105.152878,117.382912 153.092682,78.135483 221.519714,67.002548 
	C284.660706,56.729633 339.792267,75.702469 384.868042,121.400406 
	C411.784912,148.688797 428.381989,181.682953 434.411163,219.677826 
	C444.356995,282.354584 427.019104,336.783142 382.978302,382.104797 
	C353.642822,412.293457 317.406921,429.744263 275.466919,435.513153 
	C183.907013,448.107391 98.198112,391.308441 72.425781,305.096619 
	C60.035149,263.648285 61.293011,222.387192 77.420029,181.524612 
M346.713623,105.821648 
	C309.900391,81.185440 269.243988,72.969803 225.765366,78.610207 
	C195.770264,82.501411 168.415741,93.944725 144.905991,112.967705 
	C91.458923,156.214569 68.641922,212.079269 79.439865,280.380371 
	C86.249947,323.456726 107.684883,358.785461 141.570801,386.007111 
	C178.207260,415.438385 220.195374,428.258270 267.303864,423.878967 
	C288.132812,421.942657 307.892029,416.460480 326.565857,407.325928 
	C390.586212,376.009491 431.379730,307.443481 423.897369,234.870621 
	C421.736877,213.915695 416.530548,193.996490 407.334625,175.138870 
	C393.521851,146.813583 373.381683,123.917099 346.713623,105.821648 
z"/>
<path fill="#000000" opacity="1.000000" stroke="none" 
	d="
M344.141144,118.814499 
	C380.445648,145.067078 402.829559,180.093384 410.069489,223.736679 
	C418.547852,274.845642 405.350342,320.486542 370.543793,359.241302 
	C343.257141,389.623230 309.128113,407.520233 268.415344,411.319244 
	C200.512726,417.655426 148.429047,390.648499 111.964706,333.726501 
	C97.945244,311.841675 91.154160,287.205139 89.503532,261.027405 
	C86.731400,217.063507 99.739212,178.508469 128.297775,145.363388 
	C155.150284,114.198364 189.307190,95.787354 230.213837,90.621666 
	C271.594208,85.396149 309.519867,94.865311 344.141144,118.814499 
M168.856079,115.379036 
	C153.908249,124.436440 140.623154,135.487259 129.644699,149.099487 
	C94.703339,192.423416 83.740257,241.230682 98.821182,294.827637 
	C118.313431,364.102203 185.632446,414.443512 261.923889,408.812836 
	C290.888977,406.675079 317.636139,398.135315 340.900421,380.960846 
	C396.136597,340.183685 418.637573,285.360352 405.492188,217.886719 
	C391.515930,146.148163 328.619446,95.091911 256.201141,92.447266 
	C225.133865,91.312714 196.207550,99.097443 168.856079,115.379036 
z"/>
<path fill="#000000" opacity="1.000000" stroke="none" 
	d="
M229.752579,164.382599 
	C236.548950,161.901642 242.580307,162.837173 248.226105,166.507660 
	C250.489761,167.979294 252.334366,167.658890 254.628281,166.258133 
	C261.115814,162.296570 269.980591,164.768921 273.467255,171.546188 
	C274.810486,174.157104 276.267517,175.541672 279.316895,176.013474 
	C283.738159,176.697525 287.694977,178.712982 288.830444,183.656540 
	C289.910461,188.358444 287.364838,191.759079 284.016449,194.451004 
	C278.254974,199.082886 272.363464,203.687881 264.249054,199.504486 
	C263.432861,199.083725 262.306885,199.263885 261.027832,199.489395 
	C282.884338,207.025528 291.296112,225.794495 299.113281,245.010239 
	C312.232635,235.839493 312.225159,235.850372 325.306152,244.817719 
	C330.113831,248.113495 334.943420,251.378693 339.810181,254.586273 
	C341.563171,255.741669 343.265137,256.946564 342.685638,259.305298 
	C342.121063,261.603424 340.115814,262.040314 338.021820,262.346039 
	C328.451294,263.743439 318.718689,262.464447 309.151825,264.241058 
	C305.929230,264.839508 304.427643,262.335388 303.796051,259.476227 
	C303.160431,256.598633 302.619171,253.700150 301.635071,250.872787 
	C302.468048,259.280273 303.660461,267.731750 302.847931,276.065796 
	C300.958771,295.443695 294.293182,312.754761 275.931671,322.293121 
	C251.706909,334.877319 215.167068,329.516235 203.477921,294.907135 
	C195.397659,270.983215 199.766113,248.627975 211.160522,227.069611 
	C216.109802,217.705505 222.276199,209.281708 232.064590,204.194794 
	C237.775681,201.226791 243.604370,199.049576 250.188797,199.526917 
	C251.615219,199.630310 253.215744,199.851822 254.710129,198.150955 
	C250.254562,195.615799 245.748245,195.992096 241.245697,197.007126 
	C236.811584,198.006744 232.765060,200.001282 229.058838,202.605484 
	C225.947128,204.791931 223.631866,204.297470 221.591354,201.089081 
	C218.229553,195.803192 215.721344,190.258942 215.681061,183.863220 
	C215.622589,174.577347 219.982117,168.448395 229.752579,164.382599 
M292.998901,289.442932 
	C300.447876,262.895203 294.204224,239.086731 276.720306,218.681503 
	C262.283569,201.832596 237.726120,203.467590 224.169235,221.079178 
	C211.033569,238.143555 204.768982,257.584137 207.538330,279.025330 
	C209.408386,293.503967 215.854431,306.206268 229.154617,313.832520 
	C248.277237,324.797241 282.138580,320.895264 292.998901,289.442932 
z"/>
<path fill="#000000" opacity="1.000000" stroke="none" 
	d="
M195.179047,258.906555 
	C197.622696,268.049469 196.227829,277.099091 197.326630,285.962433 
	C197.507507,287.421478 196.372650,288.404968 195.125275,289.030151 
	C190.040405,291.578705 184.808609,293.953583 179.046051,294.016235 
	C169.307266,294.122131 161.780197,284.972107 167.811554,276.091187 
	C169.233490,273.997498 168.811691,272.612823 167.437424,270.822174 
	C163.158600,265.246826 161.907654,258.833740 162.693100,251.960190 
	C163.061371,248.737518 164.272308,246.057861 167.982285,245.743973 
	C170.799606,245.505585 170.896988,243.392349 171.196426,241.463776 
	C171.861160,237.182404 172.455963,232.882111 174.585831,229.021942 
	C176.304474,225.907089 178.230133,222.624847 182.437347,223.215240 
	C186.299637,223.757233 187.712204,227.066513 188.430115,230.409332 
	C190.452728,239.827377 192.066544,249.337524 195.179047,258.906555 
M178.577194,281.351624 
	C179.598343,284.969360 182.369492,285.713257 185.194748,284.348480 
	C187.941681,283.021606 188.021530,280.255066 186.737457,277.184692 
	C183.965729,278.654938 180.746643,278.264740 178.577194,281.351624 
z"/>
<path fill="#000000" opacity="1.000000" stroke="none" 
	d="
M129.487305,214.750763 
	C132.710678,214.363312 136.430466,216.073120 138.029984,212.682037 
	C139.549683,209.460190 137.176773,206.681229 135.362579,204.065063 
	C133.467133,201.331711 131.589493,198.585068 129.755997,195.809921 
	C127.415306,192.267059 128.078018,188.786789 130.355499,185.570541 
	C132.668533,182.304108 135.723694,181.678574 138.963791,184.168228 
	C142.636169,186.990051 145.173691,191.116409 149.441284,193.312943 
	C150.397964,193.805359 150.395813,195.077820 149.986053,196.033966 
	C148.823624,198.746368 147.618515,201.455185 145.779205,203.186264 
	C143.227661,203.538239 143.279343,200.320938 140.964996,201.082428 
	C139.607391,204.126099 143.225449,204.087784 144.423645,206.715210 
	C139.399796,211.189316 141.839828,220.367691 134.328247,224.418777 
	C138.624741,228.845596 134.422424,232.646027 133.242874,237.698563 
	C127.469780,232.667450 121.925102,228.914825 115.858055,225.933670 
	C113.945099,224.993713 114.849800,223.040665 115.232666,221.454498 
	C116.408150,216.584549 116.873199,216.049500 120.769989,215.162964 
	C120.356407,213.564133 119.922493,211.973511 119.536537,210.371323 
	C119.113068,208.613419 119.335609,206.989136 121.034485,206.018768 
	C122.438019,205.217087 123.965683,205.275879 125.250732,206.306519 
	C126.664848,207.440674 127.385933,208.987274 126.523880,210.722183 
	C125.083641,213.620697 126.155891,214.726715 129.487305,214.750763 
z"/>
<path fill="#000000" opacity="1.000000" stroke="none" 
	d="
M163.553772,176.758392 
	C162.712357,176.064102 162.168671,175.477249 161.291611,174.530548 
	C160.534607,177.273514 162.150452,180.200821 160.013855,182.273941 
	C157.607147,184.609131 155.136353,180.315445 152.666809,182.209320 
	C155.031296,188.796051 155.031296,188.796051 151.097961,191.129700 
	C147.911942,185.244461 145.180649,179.061493 140.310898,174.233871 
	C138.971954,172.906525 140.322464,171.466690 141.286911,170.313278 
	C142.841232,168.454407 144.524353,166.904099 147.251434,167.915176 
	C149.516586,168.754974 151.572189,170.367279 154.532028,170.052444 
	C155.736465,163.631042 150.057632,155.222580 160.045975,151.333405 
	C163.115707,157.166458 165.717590,163.259415 170.447708,167.980362 
	C171.480850,169.011490 171.247650,170.213470 170.401855,171.101532 
	C168.394119,173.209549 167.094604,176.157379 163.553772,176.758392 
z"/>
<path fill="#000000" opacity="1.000000" stroke="none" 
	d="
M345.510254,184.842957 
	C339.704102,181.522324 336.271423,176.559174 332.244446,171.256226 
	C339.294708,168.797867 345.533875,166.630447 350.892090,162.656021 
	C352.097443,161.761963 353.120239,162.267899 353.978821,163.153641 
	C356.870880,166.137253 359.879150,169.075989 361.774109,172.818451 
	C363.678436,176.579361 362.931000,180.045029 359.424225,182.475067 
	C355.338715,185.306183 350.901886,186.989166 345.510254,184.842957 
M351.719818,176.302719 
	C353.149200,175.207245 355.470337,174.886703 355.446564,171.940674 
	C350.925293,172.789429 347.323578,174.636505 343.628723,177.401428 
	C346.893616,179.607101 348.830383,177.086060 351.719818,176.302719 
z"/>
<path fill="#000000" opacity="1.000000" stroke="none" 
	d="
M388.351715,231.151077 
	C384.541443,234.013626 382.204987,232.995819 381.257660,228.858887 
	C380.636627,226.146912 379.395935,226.086624 377.392242,227.444977 
	C374.513245,229.396759 371.783051,231.532486 368.986633,234.499802 
	C365.673706,230.576752 364.487122,226.962326 367.613770,222.754089 
	C361.437805,221.084167 362.304260,216.082260 361.187317,211.403183 
	C368.351135,211.905777 374.778412,212.287888 381.157013,211.096329 
	C382.819275,210.785782 383.700684,211.780289 384.095551,213.139587 
	C384.854034,215.750565 386.607513,218.201172 385.892548,220.863647 
	C384.065186,222.365479 382.790283,220.462814 380.569519,221.026474 
	C382.716675,222.551895 384.497284,223.752045 386.205414,225.047760 
	C388.112366,226.494247 389.944794,228.031036 388.351715,231.151077 
z"/>
<path fill="#000000" opacity="1.000000" stroke="none" 
	d="
M316.360291,134.581421 
	C318.038574,135.404266 319.411407,136.014435 320.704468,136.762451 
	C322.252686,137.658112 324.375488,138.458527 323.614319,140.756073 
	C322.941040,142.788345 321.669861,144.934464 319.132629,144.805893 
	C314.920990,144.592499 313.411926,145.801910 314.558014,150.295364 
	C315.281097,153.130432 311.025360,156.131668 307.971497,154.967789 
	C303.045837,153.090515 298.289825,150.752808 293.521423,147.489212 
	C298.696625,142.102173 303.987061,137.377579 307.794861,131.263916 
	C310.989685,131.162216 313.314789,133.308853 316.360291,134.581421 
z"/>
<path fill="#000000" opacity="1.000000" stroke="none" 
	d="
M267.432861,140.946594 
	C263.480225,136.131302 263.747742,130.450897 267.830444,125.374214 
	C271.324341,121.029694 276.577026,119.777206 281.645264,122.124786 
	C282.974915,122.740669 284.106140,123.874542 285.775574,123.470100 
	C287.493835,123.053818 289.484924,122.953705 289.863770,125.010139 
	C290.309723,127.430603 288.941956,129.609314 286.922913,130.888458 
	C285.182953,131.990814 283.980072,130.620529 282.809998,129.249649 
	C279.549500,125.429512 278.544891,125.646118 275.969360,130.509659 
	C279.931976,131.812836 284.380707,131.505081 288.371704,134.101730 
	C285.918701,136.914444 283.790558,139.572784 282.192963,142.605392 
	C281.720337,143.502533 280.489655,144.341141 279.703400,143.836853 
	C276.007507,141.466415 271.426239,143.393616 267.432861,140.946594 
z"/>
<path fill="#000000" opacity="1.000000" stroke="none" 
	d="
M220.296448,121.997040 
	C223.620102,121.256401 226.538315,120.594727 229.473251,120.018051 
	C231.274460,119.664131 233.229355,119.219643 234.348694,121.281448 
	C235.418335,123.251694 235.062378,125.464706 233.651443,126.886375 
	C230.782822,129.776825 229.457184,131.887909 233.522659,135.199066 
	C235.374298,136.707153 234.512421,140.635864 232.020447,141.608231 
	C226.717133,143.677567 221.103333,145.033005 215.051041,145.051483 
	C215.403366,137.860367 217.540359,131.416473 216.222275,124.705383 
	C215.799728,122.554062 218.526642,122.825294 220.296448,121.997040 
z"/>
<path fill="#000000" opacity="1.000000" stroke="none" 
	d="
M377.942322,200.662933 
	C375.132416,206.510742 369.484650,208.875641 362.752594,207.372971 
	C357.084137,206.107727 352.211761,200.741501 352.210999,195.531570 
	C352.210480,192.009064 354.070862,189.658096 357.300812,188.244263 
	C367.210693,183.906479 376.450195,189.250153 377.942322,200.662933 
M359.618378,197.334366 
	C358.561615,198.059265 357.447723,199.264709 359.579132,199.475250 
	C363.709839,199.883301 367.763519,199.253906 371.983643,196.115005 
	C367.166260,194.389374 363.724823,196.106964 359.618378,197.334366 
z"/>
<path fill="#000000" opacity="1.000000" stroke="none" 
	d="
M190.722412,144.979797 
	C189.903610,134.800095 193.146469,129.482407 201.060120,127.328011 
	C205.028961,126.247536 207.954269,127.566185 209.868011,131.013885 
	C213.620224,137.773682 210.969101,146.723419 204.227112,150.479385 
	C197.674896,154.129623 193.492859,152.544540 190.722412,144.979797 
M202.362030,136.507172 
	C201.612122,135.401138 202.231644,133.374008 199.567703,133.056427 
	C198.717560,137.656647 198.539246,141.977203 201.423996,147.102112 
	C203.403397,143.138519 202.477615,140.160965 202.362030,136.507172 
z"/>
<path fill="#000000" opacity="1.000000" stroke="none" 
	d="
M187.301910,144.970444 
	C187.369507,148.112122 186.037506,150.232681 184.049347,151.830795 
	C180.576996,154.621902 178.278549,157.373566 183.507233,160.677399 
	C180.863098,164.174835 177.758789,165.834091 174.032639,167.529709 
	C172.034637,160.476517 170.773376,153.641113 167.158676,147.666550 
	C166.978973,147.369583 167.251007,146.712234 167.450592,146.287460 
	C168.504074,144.045441 179.422775,137.580872 181.821442,137.932114 
	C185.554794,138.478775 187.104553,140.998779 187.301910,144.970444 
z"/>
<path fill="#000000" opacity="1.000000" stroke="none" 
	d="
M315.136169,158.817444 
	C313.675385,157.233154 313.940125,156.463104 315.554871,155.547760 
	C320.622986,152.674774 325.482391,149.466354 329.265686,144.926529 
	C330.359131,143.614441 331.546936,143.590607 332.759491,144.457260 
	C334.763641,145.889694 337.144989,147.158844 336.770721,150.237885 
	C336.473663,152.681580 336.081757,155.113739 335.701233,157.765350 
	C339.746948,157.579880 342.713654,147.957901 347.599182,157.065674 
	C341.718231,159.399933 337.391296,163.770767 332.439148,167.273438 
	C330.839172,168.405090 329.038635,168.899094 327.261871,168.020477 
	C325.305115,167.052856 325.498169,165.144882 325.482880,163.233994 
	C325.461670,160.591049 327.016510,158.121918 326.315918,155.346268 
	C323.907959,155.211075 322.328552,156.742264 321.359253,158.285721 
	C319.502930,161.241623 317.700562,161.196274 315.136169,158.817444 
z"/>
<path fill="#000000" opacity="1.000000" stroke="none" 
	d="
M242.161942,140.430298 
	C240.113571,141.092758 238.592697,140.816971 237.070389,139.547470 
	C239.486649,133.653809 241.503693,127.732338 241.881195,121.411110 
	C241.976486,119.815605 242.630463,118.882187 244.222809,118.805489 
	C246.669968,118.687630 249.261139,118.113449 250.976807,120.708679 
	C252.043655,122.322487 252.521057,124.427551 254.611206,125.246407 
	C257.806854,124.234314 255.954376,121.185486 257.058899,119.122055 
	C259.052368,118.359627 261.029907,118.484886 263.485229,119.203056 
	C260.646606,124.841171 259.678192,130.540482 258.190247,136.090500 
	C257.661530,138.062637 256.954590,139.959854 254.537796,140.277100 
	C252.207733,140.582962 250.872101,139.180237 249.748795,137.401413 
	C248.547928,135.499817 247.976288,133.090210 245.802048,132.008240 
	C242.207596,133.970154 244.846024,138.075943 242.161942,140.430298 
z"/>
<path fill="#000000" opacity="1.000000" stroke="none" 
	d="
M306.733185,287.286743 
	C303.980499,284.062103 302.475006,271.176453 304.392792,268.150635 
	C305.908325,265.759460 308.263947,265.132843 310.895111,266.260254 
	C314.797791,267.932526 318.088715,270.533569 320.233002,274.146118 
	C322.387695,277.776215 322.723358,281.662292 319.629852,285.180786 
	C316.503845,288.736267 312.015076,289.568939 306.733185,287.286743 
z"/>
<path fill="#000000" opacity="1.000000" stroke="none" 
	d="
M257.115082,344.134003 
	C260.121643,344.050842 259.954926,347.396210 262.122833,348.041443 
	C264.281860,347.259430 264.200623,343.615845 267.618561,344.077148 
	C268.710693,346.285065 267.566803,348.778046 267.956024,351.123871 
	C268.185822,352.508789 268.692383,354.495117 266.201935,354.200714 
	C263.430542,353.873016 265.586243,351.891693 265.110901,350.154449 
	C263.416718,352.693573 261.544800,354.069397 259.610687,350.255859 
	C259.166565,352.396149 260.037659,355.307068 256.278107,353.730408 
	C256.436432,350.638641 256.600250,347.439636 257.115082,344.134003 
z"/>
<path fill="#000000" opacity="1.000000" stroke="none" 
	d="
M187.907318,344.192139 
	C189.120239,347.353607 187.583588,350.518372 188.628510,354.105499 
	C186.037628,352.111542 182.724869,352.812286 179.995728,350.848724 
	C179.927261,352.698364 180.666458,355.388855 177.223557,353.898590 
	C177.223557,350.696777 177.223557,347.498566 177.223557,344.405975 
	C180.825302,343.293854 180.552719,347.356598 182.670410,347.936737 
	C184.980682,347.431335 184.958893,344.088501 187.907318,344.192139 
z"/>
<path fill="#000000" opacity="1.000000" stroke="none" 
	d="
M292.403870,354.262207 
	C290.316742,352.202271 290.299591,352.059265 290.900177,344.245544 
	C294.024292,343.607849 294.562378,347.191742 296.795990,348.016754 
	C297.924896,346.786041 295.058929,343.799164 298.457581,343.893097 
	C301.657257,343.981567 300.076050,346.525360 300.046143,348.068573 
	C300.008911,349.988281 300.527069,352.082977 298.985504,353.762177 
	C296.136169,354.308990 295.958832,350.995178 293.972687,350.337952 
	C292.476044,351.326294 295.732452,353.779755 292.403870,354.262207 
z"/>
<path fill="#000000" opacity="1.000000" stroke="none" 
	d="
M336.659424,348.129517 
	C337.018677,345.508118 338.069885,343.873169 340.485779,343.951904 
	C342.527924,344.018494 343.944489,345.427368 344.283295,347.318542 
	C344.685486,349.564026 344.911224,352.010956 342.726379,353.698334 
	C341.582367,354.581818 340.196838,354.644257 338.944794,354.093384 
	C336.489319,353.013062 336.653564,350.716461 336.659424,348.129517 
z"/>
<path fill="#000000" opacity="1.000000" stroke="none" 
	d="
M253.006226,351.783081 
	C253.357208,352.701630 253.276657,353.898010 253.136490,353.797668 
	C250.621918,351.998505 248.112625,354.307953 245.684357,353.950073 
	C245.684357,350.619141 245.684357,347.548096 245.684357,344.553284 
	C251.923599,343.142151 252.485977,343.713287 253.006226,351.783081 
z"/>
<path fill="#000000" opacity="1.000000" stroke="none" 
	d="
M171.411377,353.737061 
	C168.958557,350.536438 167.149063,355.506714 164.678345,353.521820 
	C165.509430,350.130646 166.308929,346.587433 169.366028,343.848480 
	C172.537354,346.186310 172.922729,349.678162 173.945892,352.704224 
	C174.561691,354.525421 172.830750,354.176514 171.411377,353.737061 
z"/>
<path fill="#000000" opacity="1.000000" stroke="none" 
	d="
M223.555466,346.559265 
	C224.384888,341.859833 227.853470,343.464020 229.707779,344.206970 
	C232.277527,345.236511 230.748657,346.504913 229.010330,347.547943 
	C228.722412,347.720673 230.111221,350.271149 227.843307,351.029968 
	C226.306412,351.544189 226.994553,355.314697 224.249908,353.940552 
	C222.121124,352.874725 223.920624,350.624023 223.593613,348.941833 
	C223.469391,348.302856 223.575974,347.619019 223.555466,346.559265 
z"/>
<path fill="#000000" opacity="1.000000" stroke="none" 
	d="
M239.573944,345.657288 
	C240.744019,348.478455 242.447891,350.766174 242.744171,354.029297 
	C239.510788,353.785156 236.644562,350.449432 233.913803,355.813385 
	C233.212814,350.532959 234.975494,347.804199 236.604965,345.121307 
	C237.389191,343.830078 238.540558,344.148773 239.573944,345.657288 
z"/>
<path fill="#000000" opacity="1.000000" stroke="none" 
	d="
M314.530334,343.951843 
	C316.665314,343.876923 318.574951,343.128510 320.297302,345.215454 
	C317.616333,346.578857 319.642059,350.043060 317.098755,351.549957 
	C317.927948,352.814636 319.567017,350.828583 320.226044,352.900604 
	C318.642548,355.707581 316.039673,353.858307 313.388123,354.489960 
	C313.987457,350.658234 312.778656,347.326569 314.530334,343.951843 
z"/>
<path fill="#000000" opacity="1.000000" stroke="none" 
	d="
M334.454773,353.130615 
	C332.296692,355.365906 330.213226,354.510223 328.180908,353.692474 
	C327.675018,351.019562 330.680389,350.479401 330.824860,348.399292 
	C330.652496,346.688965 328.017517,348.254242 328.086243,345.911713 
	C328.636017,344.092377 330.246582,343.434479 332.199707,344.076050 
	C334.282288,344.760101 334.872925,346.626343 334.187653,348.520447 
	C333.608429,350.121429 334.140533,351.411469 334.454773,353.130615 
z"/>
<path fill="#000000" opacity="1.000000" stroke="none" 
	d="
M214.882751,347.006927 
	C213.164780,349.210846 213.139343,351.579071 212.514633,355.333527 
	C208.795532,351.924377 209.481522,347.471924 206.506241,344.448639 
	C209.757660,343.749451 212.156723,345.600189 214.735870,344.131927 
	C215.740814,343.559814 215.673965,345.656067 214.882751,347.006927 
z"/>
<path fill="#000000" opacity="1.000000" stroke="none" 
	d="
M281.774048,345.453369 
	C281.717438,347.546021 279.943176,346.476990 279.160675,347.320831 
	C280.505432,348.974426 283.490234,350.031189 281.485382,352.944336 
	C280.240784,354.752869 278.333099,354.676361 276.531494,354.110504 
	C275.533264,353.796997 274.861267,352.777283 275.524139,351.724426 
	C276.508698,350.160492 277.481415,352.361084 278.916351,351.752411 
	C277.837677,349.558563 273.868866,347.989960 276.541260,344.914124 
	C278.020203,343.211914 280.053345,343.179352 281.774048,345.453369 
z"/>
<path fill="#000000" opacity="1.000000" stroke="none" 
	d="
M159.650070,348.213745 
	C159.036697,350.272583 158.269485,352.177216 157.342789,354.000793 
	C157.254303,354.174896 155.696899,353.983032 155.620529,353.724762 
	C154.731445,350.718170 154.188416,347.238220 155.715363,344.749390 
	C156.880356,342.850555 159.988953,343.139374 161.688019,344.602417 
	C162.996994,347.802490 158.451996,345.445282 159.650070,348.213745 
z"/>
<path fill="#000000" opacity="1.000000" stroke="none" 
	d="
M352.452515,345.101440 
	C355.563873,347.854034 348.462891,351.146820 354.501099,353.157867 
	C351.095856,354.989227 348.852814,354.296570 346.600098,353.992798 
	C346.381134,350.657562 350.096771,350.100494 350.178864,347.409180 
	C349.421936,346.031555 347.958069,347.724670 346.672821,346.107452 
	C347.990509,343.787903 349.619019,342.971008 352.452515,345.101440 
z"/>
<path fill="#000000" opacity="1.000000" stroke="none" 
	d="
M302.967590,346.061218 
	C305.870850,343.407501 308.443054,342.559998 311.052094,346.278687 
	C308.967438,347.993347 304.328125,344.956879 304.663055,349.672546 
	C304.897858,352.979065 308.027374,351.915710 310.955627,352.110046 
	C309.111633,355.065125 306.949402,355.118927 304.895935,354.046692 
	C301.667511,352.360870 301.298126,349.557587 302.967590,346.061218 
z"/>
<path fill="#000000" opacity="1.000000" stroke="none" 
	d="
M362.036133,350.458923 
	C361.301880,354.685150 358.819641,354.652985 355.829590,353.954315 
	C355.691132,351.155426 359.272644,353.478912 358.918488,350.199036 
	C358.300873,349.001007 353.560089,349.280396 355.851013,345.493408 
	C357.150177,343.345825 358.903900,343.371613 361.388550,344.613556 
	C357.608002,347.070404 361.689270,348.201080 362.036133,350.458923 
z"/>
<path fill="#000000" opacity="1.000000" stroke="none" 
	d="
M200.650192,346.639038 
	C200.572845,348.461945 200.572845,349.916168 200.572845,350.992523 
	C201.589249,352.948181 203.808273,351.005981 204.675995,353.219391 
	C202.712952,355.256012 200.384659,354.310699 197.597122,353.976715 
	C197.597122,351.245300 197.612610,348.650726 197.589706,346.056427 
	C197.580139,344.973053 197.765594,344.033295 199.076630,343.985992 
	C200.691010,343.927704 200.985046,344.923737 200.650192,346.639038 
z"/>
<path fill="#000000" opacity="1.000000" stroke="none" 
	d="
M286.739380,344.113403 
	C287.244904,347.418304 287.406799,350.583588 287.562256,353.623474 
	C286.061218,354.269775 284.253265,354.261505 284.661743,352.974365 
	C285.604126,350.005188 282.271667,346.221436 286.739380,344.113403 
z"/>
<path fill="#000000" opacity="1.000000" stroke="none" 
	d="
M192.443420,353.967255 
	C191.151382,345.069153 191.151382,345.069153 194.542053,344.093170 
	C194.542053,347.102905 194.561966,350.020813 194.532272,352.938171 
	C194.520386,354.106110 193.620010,354.113190 192.443420,353.967255 
z"/>
</svg>